# xmcd
#
# Track frame offsets:
#	150
#	14385
#	28940
#	42980
#	55464
#	69102
#	82100
#	95944
#	110570
#	126503
#	139462
#	153014
#	166556
#	180178
#	195347
#	210866
#	225020
#	241066
#	254250
#	268672
#	283989
#	299704
#	312393
#	327512
#	341850
#
# Disc length: 4759 seconds
# Revision: 0
# Processed by: cddbd v1.5.2PL0 Copyright (c) Steve Scherf et al.
# Submitted via: dBpowerAMP V12.0
#
DISCID=6f129519
DTITLE=Various Artist - Bo Carter and The Mississippi Sheiks disc 1
DYEAR=2011
DGENRE=Blues
TTITLE0=Bo Carter - Good Old Turnip Greens
TTITLE1=Jackson Blue Boys - Sweet Alberta
TTITLE2=Charlie McCoy - It Ain't No Good, Pt. 1
TTITLE3=Charlie McCoy - It's Hot Like That
TTITLE4=Charlie McCoy - Blue Heaven Blues
TTITLE5=Walter Vincent - Your Friends Gonna Use It Too, Pt. 1
TTITLE6=Mississippi Sheiks - Sitting On Top of the World
TTITLE7=Mississippi Sheiks - The Jazz Fiddler
TTITLE8=Mississippi Sheiks - Stop and Listen Blues
TTITLE9=Mississippi Mud Steppers - Alma Waltz
TTITLE10=Mississippi Black Snakes - Grind So Fine
TTITLE11=Mississippi Black Snakes - It Still Ain't No Good
TTITLE12=Walter Jacobs - Mississippi Low Down
TTITLE13=Texas Alexander - Seen Better Days
TTITLE14=Texas Alexander - Frost Texas Tornado Blues
TTITLE15=Mississippi Sheiks - Jake Leg Blues
TTITLE16=Mississippi Sheiks - Bootleggers' Blues
TTITLE17=Bo Carter - I'm an Old Bumble Bee
TTITLE18=Mississippi Sheiks - Your Good Man Caught the Train and Gone
TTITLE19=Mississippi Sheiks - Unhappy Blues
TTITLE20=Mississippi Sheiks - Please Don't Wake It Up
TTITLE21=Bo Carter - I've Got the Whole World In My Hand
TTITLE22=Bo Carter - Same Thing the Cats Fight About
TTITLE23=Bo Carter - Times Is Tight Like That
TTITLE24=Charlie McCoy - You Gonna Need Me
EXTD=
EXTT0=
EXTT1=
EXTT2=
EXTT3=
EXTT4=
EXTT5=
EXTT6=
EXTT7=
EXTT8=
EXTT9=
EXTT10=
EXTT11=
EXTT12=
EXTT13=
EXTT14=
EXTT15=
EXTT16=
EXTT17=
EXTT18=
EXTT19=
EXTT20=
EXTT21=
EXTT22=
EXTT23=
EXTT24=
PLAYORDER=
